<svg xmlns="http://www.w3.org/2000/svg" width="370.975" height="200.302" viewBox="0 0 370.975 200.302">
  <g id="Group_1797" data-name="Group 1797" transform="translate(-159 -72)">
    <g id="Group_1790" data-name="Group 1790" transform="translate(159 72)">
      <g id="Group_1788" data-name="Group 1788" transform="translate(0 0)">
        <path id="Path_1908" data-name="Path 1908" d="M-205.316,341.8l-4.131,4.489c-.564-.512-1.072-.968-1.574-1.431q-21.3-19.63-42.59-39.265a29.227,29.227,0,0,0-9.63-6.044,28.529,28.529,0,0,0-12.816-1.8,27.617,27.617,0,0,0-9.434,2.489,30.258,30.258,0,0,0-7.93,5.608,31.779,31.779,0,0,0-8.165,12.965,17.418,17.418,0,0,0-.747,4.3,28.275,28.275,0,0,0,2.883,14.912,28.266,28.266,0,0,0,5.068,7.114q26.159,26.891,52.331,53.768,3.092,3.176,6.182,6.352a4.128,4.128,0,0,0,.808.7,1.479,1.479,0,0,0,1.747-.076,7.925,7.925,0,0,0,.908-.859c1.844-1.994,3.689-3.986,5.511-6a1.65,1.65,0,0,1,1.374-.626c2.238.038,4.478.013,6.717.018a1.383,1.383,0,0,1,.7.062c.046.258-.18.356-.308.495-3.293,3.581-6.577,7.169-9.893,10.728a7.713,7.713,0,0,1-8.288,2.355,7.783,7.783,0,0,1-3.426-2.191q-15-15.449-30-30.9-14.315-14.74-28.629-29.483a34.218,34.218,0,0,1-9.157-17.011,34.306,34.306,0,0,1-.752-7.906,28.893,28.893,0,0,1,3.746-13.65A33.952,33.952,0,0,1-291.07,297.35a36.694,36.694,0,0,1,13.718-4.319,37.431,37.431,0,0,1,26.972,7.258,50.553,50.553,0,0,1,4.052,3.654q20.158,18.555,40.31,37.114a2.861,2.861,0,0,1,.7.745" transform="translate(308.568 -286.907)" fill="#fff"/>
        <path id="Path_1909" data-name="Path 1909" d="M-209.592,364.752c1.077-1.163,2.092-2.254,3.1-3.349q3.884-4.213,7.767-8.428c.122-.131.247-.259.368-.391a.445.445,0,0,1,.754,0c.485.527.972,1.052,1.458,1.579q5.243,5.7,10.488,11.4c.531.577.539.581,1.091.055,4.188-4,8.425-7.948,12.543-12.018a60.417,60.417,0,0,0,8.4-10.556,65.842,65.842,0,0,0,7.39-15.832,26.909,26.909,0,0,0,1.116-10.607,27.872,27.872,0,0,0-8.207-17.626,27.739,27.739,0,0,0-15.926-8.027,31.418,31.418,0,0,0-25.994,7.6c-.951.81-1.772,1.771-2.659,2.657a3.15,3.15,0,0,1-4.363.33,3.088,3.088,0,0,1-.334-4.381,39.388,39.388,0,0,1,7.948-6.77,37.944,37.944,0,0,1,15.643-5.694,38.076,38.076,0,0,1,13.34.615,29.708,29.708,0,0,1,4.906,1.558,35.19,35.19,0,0,1,10.322,6.342,35.1,35.1,0,0,1,7.763,9.974,34.143,34.143,0,0,1,3.341,10.052A33.154,33.154,0,0,1-150,327.77a68.29,68.29,0,0,1-7.325,16.832,75.894,75.894,0,0,1-13.115,16.129q-5.033,4.779-10.056,9.566a6.549,6.549,0,0,1-4.551,1.986,6.148,6.148,0,0,1-4.759-2.09c-2.013-2.163-3.995-4.355-5.991-6.534-.7-.769-1.412-1.535-2.109-2.295-.321.082-.448.337-.623.525-2.093,2.252-4.212,4.48-6.259,6.774a6.436,6.436,0,0,1-9.438.259c-6.133-5.98-12.387-11.837-18.593-17.742q-7.913-7.531-15.83-15.059c-.28-.266-.578-.511-.912-.8l4.32-4.5,35.654,33.932" transform="translate(290.816 -284.373)" fill="#fff"/>
        <path id="Path_1910" data-name="Path 1910" d="M-239.316,341.892a9.064,9.064,0,0,1-6.515-2.692q-5.211-4.776-10.457-9.514a10.073,10.073,0,0,0-6.7-2.787,10.659,10.659,0,0,0-7.177,2.543,10.685,10.685,0,0,0-3.8,6.21,10.7,10.7,0,0,0,2.773,9.906c1.523,1.633,3.226,3.1,4.855,4.633,1.259,1.186,2.537,2.352,3.793,3.541q4.452,4.217,8.89,8.445,4.872,4.616,9.756,9.22c2.19,2.069,4.426,4.092,6.552,6.225a7.171,7.171,0,0,1,1.911,7.005c-.02.087-.056.169-.084.255a1.528,1.528,0,0,1-2.6.738q-.739-.649-1.451-1.33c-1.857-1.77-3.7-3.55-5.564-5.319q-5.609-5.335-11.228-10.661-3.148-2.987-6.3-5.968c-3.745-3.552-7.476-7.117-11.231-10.658a19.376,19.376,0,0,1-5.849-10.233,18.687,18.687,0,0,1,2.169-13.528,18.6,18.6,0,0,1,7.94-7.517,17.058,17.058,0,0,1,9.066-1.951,16.943,16.943,0,0,1,10.333,4.177c2.536,2.264,5.04,4.565,7.562,6.845q4.149,3.748,8.3,7.492a5.763,5.763,0,0,1,.894.981,1.641,1.641,0,0,1-.559,2.274,9.037,9.037,0,0,1-3.146,1.456,8.425,8.425,0,0,1-2.128.211" transform="translate(300.029 -294.615)" fill="#fff"/>
        <path id="Path_1911" data-name="Path 1911" d="M-160.44,314.918c.3-.071.392-.309.545-.478a7.841,7.841,0,0,1,8.312-2.588,7.7,7.7,0,0,1,5.859,6.216,19.572,19.572,0,0,1,.217,5.778,28.411,28.411,0,0,1-1.328,6.545,28.4,28.4,0,0,1-5.113,9.159,17.78,17.78,0,0,1-1.367,1.535c-.6.575-.594.587-1.184.06q-2.2-1.966-4.4-3.94c-5.11-4.619-10.177-9.287-15.341-13.845a8.4,8.4,0,0,1-1.472-10.51,8.009,8.009,0,0,1,7.948-3.955,8.082,8.082,0,0,1,6.724,4.551,14.787,14.787,0,0,1,.6,1.473" transform="translate(268.962 -291.738)" fill="#fff"/>
        <path id="Path_1912" data-name="Path 1912" d="M-202,420.557a23.64,23.64,0,0,0,.782-2.647c.243-.852.238-.863,1.128-.853,1.363.017,1.013-.168,1.4,1.067a15.319,15.319,0,0,0,.813,2.545c.208-1.08.426-2.038.566-3.006.073-.5.3-.649.765-.614.408.031.821.006,1.268.006a10.578,10.578,0,0,1-.4,2.164c-.286,1.368-.612,2.728-.887,4.1-.084.415-.219.608-.684.621-1.485.042-1.484.062-1.892-1.388q-.339-1.2-.687-2.4a.854.854,0,0,0-.08-.154c-.32,0-.248.285-.3.455-.287.969-.582,1.937-.818,2.92-.106.439-.31.559-.739.568-1.484.029-1.481.044-1.789-1.356-.339-1.539-.686-3.076-1.024-4.616-.057-.259-.089-.524-.141-.835a7.1,7.1,0,0,1,1.607-.068c.309-.011.383.194.431.457.159.877.335,1.752.508,2.627.026.131-.006.285.167.413" transform="translate(277.322 -324.29)" fill="#fff"/>
        <path id="Path_1913" data-name="Path 1913" d="M-149.641,434.587v-.847c0-.716,0-1.432,0-2.148,0-.261.04-.44.369-.487,1.47-.21,1.622-.09,1.622,1.37,0,1.611,0,3.222,0,4.834,0,.652-.013.652-.615.671-1.319.042-1.319.042-2.078-1.069L-152,434.489c-.307.149-.182.386-.186.568-.015.775-.033,1.553,0,2.327.023.487-.175.615-.623.6-1.7-.045-1.344.221-1.367-1.351-.024-1.641.006-3.282-.013-4.923-.006-.45.108-.615.6-.616,1.344,0,1.344-.029,2.085,1.058q.843,1.239,1.687,2.476l.178-.043" transform="translate(262.121 -328.496)" fill="#fff"/>
        <path id="Path_1914" data-name="Path 1914" d="M-176.446,420.571c0,.918-.022,1.836.009,2.752.017.472-.142.617-.61.605-1.714-.042-1.364.169-1.384-1.347-.022-1.638.007-3.277-.013-4.915-.006-.449.12-.62.6-.628,1.358-.022,1.358-.044,2.144,1.108l1.309,1.918a.807.807,0,0,0,.48.424c.178-1.152-.032-2.279.123-3.379,1.934-.192,1.934-.192,1.934,1.656,0,1.519-.017,3.038.01,4.558.009.482-.171.6-.619.608-1.338.029-1.337.045-2.086-1.049q-.819-1.2-1.644-2.39l-.254.081" transform="translate(269.419 -324.285)" fill="#fff"/>
        <path id="Path_1915" data-name="Path 1915" d="M-141.524,420.875c1.095.7,1.386,1.887,2.039,3.048-.776,0-1.418-.006-2.06,0-.29,0-.417-.181-.533-.4q-.443-.827-.893-1.651a1.5,1.5,0,0,0-.494-.621c-.369-.226-.6-.108-.608.339-.014.6-.018,1.193,0,1.789.012.364-.088.566-.493.548a11.533,11.533,0,0,0-1.163,0c-.414.023-.492-.186-.49-.546q.017-2.907,0-5.813c0-.382.13-.527.518-.519,1.163.022,2.327.014,3.489.024a3.338,3.338,0,0,1,.532.063,1.679,1.679,0,0,1,1.6,1.43,1.848,1.848,0,0,1-.993,2.1c-.129.073-.269.124-.45.206m-1.613-2.417c-.85-.006-.863,0-.925.229-.247.911.074,1.281.988,1.133.145-.024.288-.064.431-.1a.576.576,0,0,0,.442-.671.567.567,0,0,0-.494-.547,2.443,2.443,0,0,0-.443-.041" transform="translate(259.722 -324.292)" fill="#fff"/>
        <path id="Path_1916" data-name="Path 1916" d="M-199.664,431.182a15.925,15.925,0,0,1,1.695.01,2.617,2.617,0,0,1,2.46,2.313,6.359,6.359,0,0,1,0,2.222,2.607,2.607,0,0,1-2.1,2.162,22.136,22.136,0,0,1-3.742.122c-.328,0-.375-.211-.373-.479.006-.833,0-1.667,0-2.5q0-1.428,0-2.857c0-1.118-.1-1.027.986-1.03h1.072v.036m2.158,3.448c-.022-.209-.034-.416-.066-.619a1.34,1.34,0,0,0-1.648-1.3c-.256.023-.372.1-.371.37.007,1.007,0,2.013,0,3.02,0,.2.08.336.306.346,1.125.05,1.616-.254,1.706-1.2.02-.206.045-.411.069-.617" transform="translate(276.422 -328.532)" fill="#fff"/>
        <path id="Path_1917" data-name="Path 1917" d="M-166.969,420.457c0-.925.015-1.85-.007-2.775-.01-.434.08-.659.587-.637.924.04,1.851-.011,2.776.026a2.7,2.7,0,0,1,2.866,2.512,5.036,5.036,0,0,1-.094,2.306,2.553,2.553,0,0,1-2.129,1.925,24.4,24.4,0,0,1-3.575.111c-.378.009-.43-.207-.427-.514.008-.985,0-1.969,0-2.954m2.136.012h0c0,.505,0,1.012,0,1.517,0,.18.023.364.271.372.878.029,1.616-.08,1.713-1.207a6.127,6.127,0,0,0-.025-1.423,1.373,1.373,0,0,0-1.737-1.1c-.249.064-.222.238-.224.408,0,.476,0,.951,0,1.428" transform="translate(265.968 -324.29)" fill="#fff"/>
        <path id="Path_1918" data-name="Path 1918" d="M-159.176,432.925l-1.644.3c-.245.045-.371-.1-.506-.276a1.282,1.282,0,0,0-1.458-.393,1.35,1.35,0,0,0-1,1.145,4.472,4.472,0,0,0-.027,1.511,1.45,1.45,0,0,0,.961,1.278,2.092,2.092,0,0,0,1.793-.261c.22-.118.194-.35.148-.557-.041-.189-.208-.179-.353-.187-.09-.006-.179,0-.268,0-.749-.034-.749-.034-.742-.738.006-.642.006-.649.631-.658.715-.009,1.43.012,2.146-.007.385-.01.533.134.515.52a7.606,7.606,0,0,0,.007,1.428,1.311,1.311,0,0,1-.925,1.5,5.63,5.63,0,0,1-3.828.378,2.625,2.625,0,0,1-.815-.35,3.778,3.778,0,0,1-1.328-4.072,3.086,3.086,0,0,1,2.843-2.432,8.423,8.423,0,0,1,1.872.03,2.21,2.21,0,0,1,1.979,1.849" transform="translate(265.674 -328.491)" fill="#fff"/>
        <path id="Path_1919" data-name="Path 1919" d="M-186.934,423.972a3.238,3.238,0,0,1-3.54-3.551,3.263,3.263,0,0,1,3.6-3.509,3.218,3.218,0,0,1,3.517,3.568,3.2,3.2,0,0,1-3.576,3.492m1.445-3.572a2.975,2.975,0,0,0-.087-.827,1.3,1.3,0,0,0-1.361-1.041,1.233,1.233,0,0,0-1.283,1.011,3.155,3.155,0,0,0,.029,1.925,1.224,1.224,0,0,0,1.355.91,1.194,1.194,0,0,0,1.226-.957,3.269,3.269,0,0,0,.122-1.021" transform="translate(273.037 -324.25)" fill="#fff"/>
        <path id="Path_1920" data-name="Path 1920" d="M-156.238,420.531c0-.955.015-1.91-.007-2.864-.01-.437.088-.636.589-.624q2.238.049,4.477,0c.507-.011.624.2.579.628a1.7,1.7,0,0,0,0,.179c-.006.642-.006.648-.615.654q-1.12.01-2.239,0c-.382,0-.724-.01-.7.537.02.491.052.553.66.564.687.012,1.374.024,2.06,0,.466-.019.624.145.61.617-.022.759.008.762-.8.768-.657,0-1.314-.011-1.97,0-.542.013-.552.06-.563.747-.006.406.026.684.564.657.833-.042,1.672.008,2.506-.018.447-.014.687.1.609.593a1.9,1.9,0,0,0,0,.268c-.012.672-.012.682-.7.686q-2.194.011-4.388,0c-.657,0-.663-.013-.668-.706-.006-.895,0-1.79,0-2.685" transform="translate(262.739 -324.289)" fill="#fff"/>
        <path id="Path_1921" data-name="Path 1921" d="M-188.816,435.156a2.176,2.176,0,0,0-.052.336c-.01,1.174-.045.965.923.978.716.009,1.432.021,2.146-.006.408-.016.631.078.569.535a2.686,2.686,0,0,0,0,.536c.022.33-.094.486-.454.483-1.61-.012-3.22-.008-4.83,0-.327,0-.485-.1-.482-.464q.017-2.95,0-5.9c0-.394.152-.515.529-.512q2.325.019,4.651,0c.387,0,.552.136.515.52a2.122,2.122,0,0,0,0,.447c.051.413-.165.5-.526.494-.835-.015-1.67.016-2.5-.012-.45-.015-.554.175-.55.584,0,.375.115.54.51.529.685-.02,1.371-.009,2.057,0,.728.006.728.01.724.741,0,.626,0,.631-.626.638s-1.252,0-1.878,0a1.524,1.524,0,0,0-.719.078" transform="translate(273.195 -328.53)" fill="#fff"/>
        <path id="Path_1922" data-name="Path 1922" d="M-119.842,419.508c0,.566.015,1.131,0,1.7a2.658,2.658,0,0,1-2.747,2.776c-.327.011-.656.012-.983,0a2.593,2.593,0,0,1-2.816-2.606c-.1-1.3-.023-2.618-.034-3.927,0-.31.145-.393.434-.421,1.674-.163,1.685-.159,1.686,1.491,0,.923-.024,1.846.01,2.768a1.062,1.062,0,0,0,1.214,1.117c.723-.018,1.106-.4,1.123-1.2.023-1.07.007-2.143.008-3.214,0-.208,0-.417,0-.625a.3.3,0,0,1,.339-.324c.029,0,.059,0,.089,0,1.674-.175,1.674-.175,1.674,1.5v.982Z" transform="translate(253.772 -324.263)" fill="#fff"/>
        <path id="Path_1923" data-name="Path 1923" d="M-181.237,435.718c.375-.037.757-.062,1.135-.115.442-.063.754-.035.952.493a1.073,1.073,0,0,0,1.346.583.726.726,0,0,0,.607-.58.643.643,0,0,0-.443-.7,4.7,4.7,0,0,0-.766-.238,7.4,7.4,0,0,1-1.6-.547,1.751,1.751,0,0,1-1.062-1.716,1.764,1.764,0,0,1,1.2-1.629,4.638,4.638,0,0,1,3.323,0c.69.259.97.726,1.151,1.709-.533.045-1.064.082-1.593.139-.32.034-.373-.217-.51-.406a1.094,1.094,0,0,0-1.256-.4.488.488,0,0,0-.36.459.418.418,0,0,0,.306.4c.252.088.514.149.773.216a10.154,10.154,0,0,1,1.7.533,2.056,2.056,0,0,1,.354,3.534,4.68,4.68,0,0,1-4.356.124,2.209,2.209,0,0,1-.906-1.865" transform="translate(270.258 -328.478)" fill="#fff"/>
        <path id="Path_1924" data-name="Path 1924" d="M-135.631,420.475c0-.953.016-1.906-.007-2.859-.01-.428.144-.571.567-.566,1.4.019,2.8.016,4.2,0,.35,0,.489.127.47.466a3.8,3.8,0,0,0,0,.536c.027.34-.106.481-.458.472-.714-.017-1.429.013-2.143-.009-.487-.016-.491.271-.505.63-.017.4.072.615.533.584.5-.034,1.012-.015,1.517-.006.615.012.615.018.619.668,0,.089-.008.179,0,.268.03.35-.138.473-.474.464-.536-.015-1.073.024-1.607-.011-.487-.033-.614.173-.588.622.031.534-.01,1.072.013,1.608.017.4-.086.577-.538.6-1.6.068-1.6.087-1.6-1.5v-1.966" transform="translate(256.539 -324.291)" fill="#fff"/>
        <path id="Path_1925" data-name="Path 1925" d="M-109.581,422.223c.3,1.7.3,1.7-1.307,1.7-1.133,0-2.267-.015-3.4.007-.461.009-.618-.143-.612-.615.024-1.878.02-3.756,0-5.635,0-.437.092-.649.589-.635,1.894.053,1.5-.243,1.533,1.47.021.983,0,1.967,0,2.951,0,.806-.054.754.792.754h2.4" transform="translate(250.299 -324.291)" fill="#fff"/>
        <path id="Path_1926" data-name="Path 1926" d="M-170.842,434.6c0-.982.01-1.963,0-2.945-.006-.368.1-.533.5-.522,1.959.053,1.553-.285,1.583,1.493.027,1.576.01,3.152,0,4.729,0,.636-.016.636-.638.655-1.444.045-1.444.045-1.444-1.357V434.6" transform="translate(267.132 -328.53)" fill="#fff"/>
      </g>
      <g id="Group_1789" data-name="Group 1789" transform="translate(122.938 76.009)">
        <path id="Path_1927" data-name="Path 1927" d="M-119.424,455.129a10.826,10.826,0,0,1-4.905.986,8.052,8.052,0,0,1-6.1-2.4,8.769,8.769,0,0,1-2.3-6.328,9.373,9.373,0,0,1,2.545-6.757,8.662,8.662,0,0,1,6.552-2.657,10.945,10.945,0,0,1,4.2.7v2.753a8.273,8.273,0,0,0-4.113-1.042,5.943,5.943,0,0,0-4.6,1.888,7,7,0,0,0-1.732,4.932,6.768,6.768,0,0,0,1.624,4.714,5.581,5.581,0,0,0,4.356,1.8,8.451,8.451,0,0,0,4.465-1.166Z" transform="translate(132.724 -406.597)" fill="#fff"/>
        <path id="Path_1928" data-name="Path 1928" d="M-110.477,447.268a9.622,9.622,0,0,1,2.329-6.724,8.058,8.058,0,0,1,6.282-2.566,7.616,7.616,0,0,1,5.947,2.492,9.189,9.189,0,0,1,2.243,6.389,9.673,9.673,0,0,1-2.289,6.7,7.883,7.883,0,0,1-6.184,2.56,7.855,7.855,0,0,1-6.021-2.471,8.969,8.969,0,0,1-2.306-6.376m2.855-.194a7.458,7.458,0,0,0,1.485,4.776,4.844,4.844,0,0,0,4.01,1.874A5.05,5.05,0,0,0-98,451.941a7.359,7.359,0,0,0,1.472-4.822,7.764,7.764,0,0,0-1.421-4.916,4.842,4.842,0,0,0-4.05-1.812,5,5,0,0,0-4.089,1.881,7.365,7.365,0,0,0-1.53,4.8" transform="translate(126.031 -406.597)" fill="#fff"/>
        <path id="Path_1929" data-name="Path 1929" d="M-68.511,448.674q0,7.566-6.921,7.567-6.638,0-6.64-7.318V438.4h2.72v10.456q0,4.994,4.122,5,4,0,4-4.826V438.4h2.718Z" transform="translate(117.484 -406.724)" fill="#fff"/>
        <path id="Path_1930" data-name="Path 1930" d="M-41.98,455.947h-3.036l-8.394-12.936a7.965,7.965,0,0,1-.68-1.235h-.068a20.774,20.774,0,0,1,.1,2.56v11.612h-2.639V438.4h3.217l8.146,12.686q.577.908.77,1.259h.056a18.338,18.338,0,0,1-.124-2.515V438.4h2.65Z" transform="translate(109.849 -406.724)" fill="#fff"/>
        <path id="Path_1931" data-name="Path 1931" d="M-30.532,452.183a7.291,7.291,0,0,0,4.746,1.644q3.489,0,3.489-2.392a2.142,2.142,0,0,0-.385-1.245,3.539,3.539,0,0,0-1.038-.969q-.649-.414-2.577-1.332a9.551,9.551,0,0,1-3.308-2.3,4.243,4.243,0,0,1-.94-2.741,4.178,4.178,0,0,1,1.79-3.569,7.581,7.581,0,0,1,4.577-1.3,9.6,9.6,0,0,1,3.989.645v2.788a6.94,6.94,0,0,0-4.045-1.121,4.5,4.5,0,0,0-2.5.623,1.944,1.944,0,0,0-.951,1.711,2.093,2.093,0,0,0,.7,1.62,13.714,13.714,0,0,0,2.941,1.7,10.3,10.3,0,0,1,3.614,2.453,4.367,4.367,0,0,1,1,2.827,4.232,4.232,0,0,1-1.721,3.637,7.963,7.963,0,0,1-4.769,1.256,13.006,13.006,0,0,1-2.492-.271,6.547,6.547,0,0,1-2.107-.725Z" transform="translate(101.981 -406.597)" fill="#fff"/>
        <path id="Path_1932" data-name="Path 1932" d="M-.245,455.947H-9.964V438.4H-.642v2.334h-6.6V445.9h6.129v2.322H-7.246v5.392h7Z" transform="translate(95.789 -406.724)" fill="#fff"/>
        <path id="Path_1933" data-name="Path 1933" d="M18.08,455.947H8.507V438.4h2.718v15.214H18.08Z" transform="translate(90.232 -406.724)" fill="#fff"/>
        <path id="Path_1934" data-name="Path 1934" d="M28.58,440.62v15.328H25.862V438.4H28.58Z" transform="translate(85.01 -406.725)" fill="#fff"/>
        <path id="Path_1935" data-name="Path 1935" d="M50.769,455.947H47.734l-8.394-12.936a7.917,7.917,0,0,1-.681-1.235H38.59a20.728,20.728,0,0,1,.1,2.56v11.612H36.054V438.4h3.217l8.145,12.686q.578.908.77,1.259h.056a18.339,18.339,0,0,1-.124-2.515V438.4h2.651Z" transform="translate(81.944 -406.724)" fill="#fff"/>
        <path id="Path_1936" data-name="Path 1936" d="M76.472,454.631a12.1,12.1,0,0,1-6.061,1.485,8.435,8.435,0,0,1-6.287-2.392,8.764,8.764,0,0,1-2.355-6.434,8.941,8.941,0,0,1,9.335-9.311,12.166,12.166,0,0,1,4.847.872v2.786a9.371,9.371,0,0,0-5.018-1.28,5.975,5.975,0,0,0-4.543,1.869,7.9,7.9,0,0,0-.141,9.783,5.713,5.713,0,0,0,4.4,1.75,6.431,6.431,0,0,0,3.093-.68v-4.395H70.015v-2.311h6.457Z" transform="translate(74.207 -406.598)" fill="#fff"/>
        <path id="Path_1937" data-name="Path 1937" d="M108.269,455.129a10.824,10.824,0,0,1-4.905.986,8.053,8.053,0,0,1-6.1-2.4,8.771,8.771,0,0,1-2.295-6.328,9.376,9.376,0,0,1,2.544-6.757,8.665,8.665,0,0,1,6.552-2.657,10.939,10.939,0,0,1,4.2.7v2.753a8.269,8.269,0,0,0-4.112-1.042,5.945,5.945,0,0,0-4.6,1.888,7,7,0,0,0-1.732,4.932,6.772,6.772,0,0,0,1.624,4.714,5.584,5.584,0,0,0,4.356,1.8,8.447,8.447,0,0,0,4.464-1.166Z" transform="translate(64.218 -406.597)" fill="#fff"/>
        <path id="Path_1938" data-name="Path 1938" d="M128.557,455.947h-9.719V438.4h9.323v2.334h-6.6V445.9h6.129v2.322h-6.129v5.392h7Z" transform="translate(57.036 -406.724)" fill="#fff"/>
        <path id="Path_1939" data-name="Path 1939" d="M152.025,455.947H148.99L140.6,443.011a7.976,7.976,0,0,1-.681-1.235h-.068a20.728,20.728,0,0,1,.1,2.56v11.612H137.31V438.4h3.217l8.145,12.686q.578.908.77,1.259h.056a18.338,18.338,0,0,1-.124-2.515V438.4h2.651Z" transform="translate(51.479 -406.724)" fill="#fff"/>
        <path id="Path_1940" data-name="Path 1940" d="M174.951,440.733h-5.04v15.214h-2.732V440.733H162.15V438.4h12.8Z" transform="translate(44.005 -406.724)" fill="#fff"/>
        <path id="Path_1941" data-name="Path 1941" d="M193.922,455.947H184.2V438.4h9.323v2.334h-6.6V445.9h6.129v2.322h-6.129v5.392h7Z" transform="translate(37.37 -406.724)" fill="#fff"/>
        <path id="Path_1942" data-name="Path 1942" d="M216,455.947h-3.182l-2.856-4.781a6.7,6.7,0,0,0-1.523-1.914,2.554,2.554,0,0,0-1.567-.51h-1.474v7.205h-2.718V438.4h5.584a6.46,6.46,0,0,1,4.22,1.229,4.256,4.256,0,0,1,1.491,3.482,4.617,4.617,0,0,1-1.033,3.026,5.424,5.424,0,0,1-2.877,1.756v.044q1.178.409,2.639,2.765Zm-10.6-15.3v5.845h2.413a3.3,3.3,0,0,0,2.406-.872,2.954,2.954,0,0,0,.9-2.22q0-2.752-3.264-2.753Z" transform="translate(31.812 -406.724)" fill="#fff"/>
        <path id="Path_1943" data-name="Path 1943" d="M-72.386,400.823a41.57,41.57,0,0,1-2.833,10.491l-1.881-1.121a35.546,35.546,0,0,0,2.641-9.788Zm11.248,5.959q-.067,2.221-.244,3.58a4.807,4.807,0,0,1-.452,1.779,3.139,3.139,0,0,1-.827.8,3.08,3.08,0,0,1-1.547.458c-.663.048-1.374.073-2.128.073q-1.258,0-2.369-.1a3.312,3.312,0,0,1-1.477-.356,1.8,1.8,0,0,1-.584-.713,2.567,2.567,0,0,1-.217-1.1V398.366h2.075v12.291q0,.838,1.013.8t3.393-.035a1.332,1.332,0,0,0,.742-.241q.368-.244.5-2.034t.129-2.967ZM-63,399.634l-1.767,1.28a28.709,28.709,0,0,0-4.779-6.378l1.46-1.28A30.606,30.606,0,0,1-63,399.634m6.469,9.98-2.016.952a36.518,36.518,0,0,0-3.546-9.073l1.814-.975a44.684,44.684,0,0,1,3.749,9.1" transform="translate(115.988 -393.142)" fill="#fff"/>
        <path id="Path_1944" data-name="Path 1944" d="M-35.534,397.423h-8.122v-1.881h3.115a15.013,15.013,0,0,0-.792-1.744l2.062-.51a11.768,11.768,0,0,1,.952,2.254h2.786Zm-.555,3.364h-6.944v-1.858h6.944Zm0,3.319h-6.944v-1.835h6.944Zm.023,8.994h-2.016v-.928H-41v1.483h-1.97v-8.02h6.909Zm-2.016-5.562H-41v2.753h2.923Zm14.964,4.361-.974,1.881a17.767,17.767,0,0,1-5.313-2.718,21.118,21.118,0,0,1-5.04,2.786l-1.179-1.767a14.389,14.389,0,0,0,4.737-2.39,15.628,15.628,0,0,1-2.923-4.781h-1.054v-1.9h10.115v1.9a18.383,18.383,0,0,1-3.126,4.758,13.748,13.748,0,0,0,4.758,2.231m-.261-10.251H-26.39a1.4,1.4,0,0,1-1.042-.493,1.587,1.587,0,0,1-.464-1.117v-4.122h-3.184v1.392a6.2,6.2,0,0,1-.764,2.958,5.383,5.383,0,0,1-2.092,2.187l-1.438-1.417a4.426,4.426,0,0,0,2.277-4.294v-2.73h7.216v5.166a.527.527,0,0,0,.217.408.638.638,0,0,0,.408.182h1.879Zm-3.59,3.261h-4.623a12.069,12.069,0,0,0,2.233,3.432,12.782,12.782,0,0,0,2.39-3.432" transform="translate(105.926 -393.152)" fill="#fff"/>
        <path id="Path_1945" data-name="Path 1945" d="M-.785,397.3h-9.654v-1.835h3.83a16.252,16.252,0,0,0-.86-1.881l2.163-.4a15.352,15.352,0,0,1,1.019,2.277h3.5Zm-1.089,3.454H-9.6V398.9h7.726Zm0,3.341H-9.6v-1.835h7.726Zm.046,9.21H-3.844v-1.165h-3.6v1.46H-9.486v-7.976h7.658Zm-2.016-5.777h-3.6V410.3h3.6ZM9.817,401.8H5.591v11.8H3.486V401.8H-.65v-2.04H3.486v-6.378H5.591v6.378H9.817Z" transform="translate(95.932 -393.123)" fill="#fff"/>
        <path id="Path_1946" data-name="Path 1946" d="M26.169,400.823a41.6,41.6,0,0,1-2.832,10.491l-1.881-1.121A35.522,35.522,0,0,0,24.1,400.4Zm11.248,5.959q-.066,2.221-.243,3.58a4.835,4.835,0,0,1-.452,1.779,3.143,3.143,0,0,1-.828.8,3.078,3.078,0,0,1-1.546.458c-.663.048-1.374.073-2.129.073q-1.258,0-2.368-.1a3.306,3.306,0,0,1-1.477-.356,1.8,1.8,0,0,1-.584-.713,2.556,2.556,0,0,1-.217-1.1V398.366h2.074v12.291q0,.838,1.013.8t3.394-.035a1.332,1.332,0,0,0,.742-.241q.369-.244.5-2.034t.129-2.967Zm-1.858-7.148-1.767,1.28a28.687,28.687,0,0,0-4.779-6.378l1.46-1.28a30.608,30.608,0,0,1,5.087,6.378m6.469,9.98-2.016.952a36.545,36.545,0,0,0-3.546-9.073l1.814-.975a44.724,44.724,0,0,1,3.749,9.1" transform="translate(86.336 -393.142)" fill="#fff"/>
        <path id="Path_1947" data-name="Path 1947" d="M61.91,409a55.706,55.706,0,0,1-6.458,3.343l-.713-1.972q.838-.327,2.764-1.256v-5.779H55.27v-1.925H57.5v-4.588H54.921v-1.858h6.944v1.858H59.5v4.588h2.017v1.925H59.5v4.714a16.336,16.336,0,0,0,2.346-1.223Zm13.2,4.429H61.819v-1.879h5.7v-2.289H62.623v-1.835h4.893v-2H62.77V394.294H74.223v11.134H69.544v2h5.008v1.835H69.544v2.289h5.562Zm-7.59-17.3H64.81V398.9h2.706Zm0,4.453H64.81V403.6h2.706Zm4.69-4.453H69.544V398.9h2.662Zm0,4.453H69.544V403.6h2.662Z" transform="translate(76.322 -393.454)" fill="#fff"/>
        <path id="Path_1948" data-name="Path 1948" d="M95.105,397.388H88.184v-1.9h2.673a10.753,10.753,0,0,0-.771-1.7l2.072-.578a14.53,14.53,0,0,1,.874,2.276h2.073Zm-.51,3.364h-5.88v-1.9H94.6Zm.023,3.432h-5.88v-1.9h5.88Zm.023,9.075H92.613v-.975H90.834v1.394H88.771v-7.942h5.87Zm-2.028-5.6H90.834v2.718h1.779Zm7.1-5.732H95.639v-1.823h4.077Zm-.023-5.98H96.1v-1.835h3.59Zm9.029,7.908-1.021,1.788a9.523,9.523,0,0,1-5.085-3.626,10.044,10.044,0,0,1-5.359,3.581l-1.065-1.723a9.23,9.23,0,0,0,3.994-1.9,5.594,5.594,0,0,0,1.647-4.215H103.7a9.415,9.415,0,0,0-.091,1.553,3.446,3.446,0,0,0,1.433,2.616,10.648,10.648,0,0,0,3.677,1.927M107.09,413.6h-2.084v-1.133H98.584V413.6h-2.1v-7.557h10.6Zm1.031-18.442a26.145,26.145,0,0,1-1.392,4.779l-1.928-.6q.522-1.3.828-2.345H101.88A12.423,12.423,0,0,1,100,399.313l-1.553-1.3a16.336,16.336,0,0,0,3.387-4.916l1.926.533a10.926,10.926,0,0,1-.725,1.529Zm-3.115,12.722H98.584v2.753h6.422Z" transform="translate(66.259 -393.093)" fill="#fff"/>
        <path id="Path_1949" data-name="Path 1949" d="M141.574,396.636h-6.241l1.551.839a9.9,9.9,0,0,1-1.086,1.858h4.8v12.223a1.925,1.925,0,0,1-.373,1.183,2.02,2.02,0,0,1-.856.7,4.722,4.722,0,0,1-1.591.191c-.385,0-.861-.018-1.427-.056l-.646-1.925c.392.023.756.035,1.086.035a6.054,6.054,0,0,0,1.588-.108.414.414,0,0,0,.226-.414v-9.969h-3.83v1.53a.386.386,0,0,0,.126.238.335.335,0,0,0,.226.136h2.73v1.734h-3.614a1.564,1.564,0,0,1-1.438-1.438v-2.2h-2.65q0,3.7-4.339,4.588l-1-1.735q3.364-.531,3.387-2.854h-3.819v12.4h-2.026V399.333h4.87a19.285,19.285,0,0,0-1.291-1.9l1.506-.795h-6.015v-1.8h9.006q-.156-.432-.531-1.212l2.13-.464a12.017,12.017,0,0,1,.611,1.676h8.926Zm-5.029,14.433h-10v-5.052h10Zm-1.609-14.433h-6.979a16.183,16.183,0,0,1,1.621,2.7h3.851a18.121,18.121,0,0,0,1.508-2.7m-.387,11.113h-5.993v1.529h5.993Z" transform="translate(56.256 -393.113)" fill="#fff"/>
        <path id="Path_1950" data-name="Path 1950" d="M164.309,394.883a24.757,24.757,0,0,1-6.593,1.711v1.926h5.868v7.567h-5.846a18.68,18.68,0,0,1-1.621,7.7l-1.858-1.483a16.148,16.148,0,0,0,1.417-7.353v-10a27.206,27.206,0,0,0,7.442-1.835Zm-2.855,5.653h-3.74v3.557h3.74Zm13.221-5.562a34.335,34.335,0,0,1-7.465,1.688v3.6h7.465v2.04H172.42v11.271H170.4V402.3h-3.194a18.526,18.526,0,0,1-2.968,11.532l-1.723-1.723a14.18,14.18,0,0,0,1.988-3.975,20.319,20.319,0,0,0,.675-5.9V394.86a29.992,29.992,0,0,0,8.359-1.767Z" transform="translate(46.379 -393.093)" fill="#fff"/>
      </g>
    </g>
    <g id="Group_1791" data-name="Group 1791" transform="translate(170 229.221)">
      <path id="Path_1951" data-name="Path 1951" d="M-259.144,524.855h-13.2v28.077h-4.1V512.409h17.293Zm-4.076-9.282h-9.119v1.8h9.119Zm0,4.412h-9.119v1.8h9.119Zm5.09,17.546-2.454,1.364q-.316-.532-.608-.948-5,.762-8.67.993l-.721-2.447a24.744,24.744,0,0,0,5.112-3.6c-1.7.248-3.123.4-4.28.464l-.742-2.447a12.614,12.614,0,0,0,5.292-5.289l2.951,1.133a19.447,19.447,0,0,1-3.783,3.785,21.5,21.5,0,0,0,3.242-.485,19.6,19.6,0,0,0,1.466-1.891l2.948,1.222a34.992,34.992,0,0,1-7.093,6.58,14.628,14.628,0,0,0,2.951-.369,3.708,3.708,0,0,0-.452-.716l2.433-1.27a28.346,28.346,0,0,1,2.409,3.925m-.742,3.833q0,4.618-1.915,6.963t-6.982,3.821l-2.137-3.232q4.681-.787,6.282-2.932h-6.036v-5.727h3.582v2.884h3.379a2.477,2.477,0,0,0,.09-.83v-2.747h3.738Zm14.614-3.878-2.724,1.315a4.856,4.856,0,0,0-.586-1.038q-3.153.511-9.053,1.133l-.631-2.4a19.119,19.119,0,0,0,4.686-3.509l-4.414.53-.653-2.516a13.924,13.924,0,0,0,4.8-5.381l3,.948a19.7,19.7,0,0,1-3.873,4.062q2.589-.344,3.424-.485a10.919,10.919,0,0,0,1.239-1.8l3.173,1.038a31,31,0,0,1-6.62,6.58q2.209-.231,3.175-.414a5.094,5.094,0,0,0-.653-.809l2.769-1.225a21.564,21.564,0,0,1,2.951,3.972m-1.194,8.682h-7.114v5.727h-3.828V539.609h3.828v3.648h3.421v-2.932h3.693Zm6.6,2.747a3.94,3.94,0,0,1-.721,2.435,3.727,3.727,0,0,1-1.79,1.329,12.888,12.888,0,0,1-3.726.369,12.4,12.4,0,0,1-1.8-.116l-1.553-4.109q1.17.092,2.61.092a15.658,15.658,0,0,0,2.331-.116c.428-.076.643-.478.643-1.2V524.855h-13.153V512.409h17.161Zm-4.008-33.343h-9.053v1.8h9.053Zm0,4.412h-9.053v1.8h9.053Z" transform="translate(276.437 -511.187)" fill="#fff"/>
      <path id="Path_1952" data-name="Path 1952" d="M-245.323,512.885q-1.259,3.6-2.454,6.488l-1.194,2.679v31.494h-3.918V529.717q-.947,1.383-3.041,4.062l-1.8-4.339a67.479,67.479,0,0,0,8.377-17.5Zm9.819,30.224a51.786,51.786,0,0,1-8.85,9.4l-3.513-2.492a42.651,42.651,0,0,0,8.715-8.937Zm5.63-29.278a60.021,60.021,0,0,1-14.479,10.829l-2.771-2.795a53.743,53.743,0,0,0,13.919-9.973Zm13.174,25.583-3.445,2.033a30.666,30.666,0,0,0-1.847-3.164q-3.671.528-7.521.946V549.62a4.5,4.5,0,0,1-1.026,2.908q-1.025,1.273-5.348,1.27a12.25,12.25,0,0,1-1.419-.069l-1.577-4.109q4.572,0,4.944-.047c.248-.031.371-.331.371-.9V539.6q-5.111.486-11.867.809l-.631-3.209a78.351,78.351,0,0,0,11.238-6q-6.824.415-9.481.461l-.745-3.348q10.494-5.4,16.194-11.869l3.693,1.986a57.32,57.32,0,0,1-12,9.351q6.735-.344,7.883-.542t5.135-4.284l3.963,1.894q-5.316,5.242-16.373,11.406,4.664-.206,12.162-1.2-.88-1.248-2.118-2.679l3.558-1.8a51.465,51.465,0,0,1,6.261,8.843m-.045,11.061-3.31,2.215a63.937,63.937,0,0,0-7.746-9.673l3.175-2.334a57.822,57.822,0,0,1,7.881,9.791" transform="translate(301.959 -511.892)" fill="#fff"/>
      <path id="Path_1953" data-name="Path 1953" d="M-222.736,523.125a55.746,55.746,0,0,1-1.395,11.314l-3.492-1.362a48.3,48.3,0,0,0,1.553-10.692Zm9.233,2.194-2.185,3.3a17.37,17.37,0,0,0-1.936-3.393v28.4h-4.008V512.457h4.008v8.081a29.486,29.486,0,0,1,4.121,4.781m24.3,24.729q0,3.738-5.2,3.74-1.713,0-3.648-.116l-1.4-3.717q4.508.067,5.44-.024a.968.968,0,0,0,.934-1.109v-2.516h-15.09a18.852,18.852,0,0,1-4.008,7.895l-3.424-2.7q3.965-3.508,3.965-11.43v-8.105H-189.2Zm2.071-20.251h-26.235V526.4h11.058v-2.334h-9.729v-3.208h9.729v-2.171h-11.1v-3.3h11.1V512.5h3.918v2.885h10.427v3.3h-10.427v2.171h9.188v3.208h-9.188V526.4h11.259Zm-5.944,13.255v-2.426h-14.569q0,1.014-.09,2.426Zm0-7.76h-14.48v2.355h14.48Z" transform="translate(343.038 -511.121)" fill="#fff"/>
      <path id="Path_1954" data-name="Path 1954" d="M-202.127,543.6a37.08,37.08,0,0,1-2.3,10.737l-3.693-1.8a37.361,37.361,0,0,0,2.343-9.93Zm10.923-23.228q-4.752,10.484-10.4,16.511a32.807,32.807,0,0,0,4.8-1.364,13.786,13.786,0,0,0-.7-1.8l3.13-1.478a37.885,37.885,0,0,1,2.409,7.618l-3.466,1.341a20.807,20.807,0,0,0-.362-2.239,86.61,86.61,0,0,1-10.765,2.608l-1.149-3.417a36.915,36.915,0,0,0,8.446-10.484q-3.288.83-7.228,1.594l-.88-3.348q3.805-4.781,6.916-13.624l3.693,1.709a42.088,42.088,0,0,1-5.5,10.782,46.312,46.312,0,0,0,5.2-1.385q1.415-2.812,2.319-5.01Zm-5.381,31.888-3.738.553a47.281,47.281,0,0,0-.7-8.935l3.424-.648a53.144,53.144,0,0,1,1.014,9.03m5.944-1.986-3.6,1.038a50.056,50.056,0,0,0-1.892-8.126l3.469-1.064a52.588,52.588,0,0,1,2.026,8.153m23.015-20.852h-7.881a33.883,33.883,0,0,1-3.648,3.719h9.368v20.8h-3.875v-2.263h-10.514v2.263h-4.055V539.491l-1.936,1.085-1.53-3.6a49.067,49.067,0,0,0,11.056-7.552h-11.283v-3.6h7.883v-4.873h-6.036v-3.693h6.036v-4.688h4.008v4.688h5.36v3.693h-5.36v4.873h2.544a62.147,62.147,0,0,0,6.306-10.552l3.2,2.031a60.792,60.792,0,0,1-4.885,8.521h5.247Zm-6.036,7.46h-10.514v3.648h10.514Zm0,7.181h-10.514v3.88h10.514Z" transform="translate(369.653 -511.348)" fill="#fff"/>
      <path id="Path_1955" data-name="Path 1955" d="M-171,527.911q-2.139,13.622-5.63,21.381l-3.738-2.286a73.823,73.823,0,0,0,5.247-19.948Zm22.362,12.146q-.135,4.525-.485,7.3a10.12,10.12,0,0,1-.9,3.625,6.271,6.271,0,0,1-1.643,1.639,5.979,5.979,0,0,1-3.074.936q-1.983.149-4.235.149-2.5,0-4.705-.2a6.512,6.512,0,0,1-2.939-.728,3.617,3.617,0,0,1-1.161-1.454,5.291,5.291,0,0,1-.428-2.239V522.9h4.121v25.051q0,1.709,2.014,1.641t6.746-.071a2.618,2.618,0,0,0,1.475-.494q.731-.5.991-4.145t.258-6.05Zm-3.691-14.572-3.516,2.61a58.343,58.343,0,0,0-9.5-13l2.9-2.61a62.35,62.35,0,0,1,10.115,13m12.858,20.343-4.008,1.939a75.665,75.665,0,0,0-7.051-18.494l3.6-1.986a92.6,92.6,0,0,1,7.455,18.542" transform="translate(407.515 -511.081)" fill="#fff"/>
      <path id="Path_1956" data-name="Path 1956" d="M-120.407,552.691h-40v-4.157h18.6V538.214h-13.983v-4.156H-141.8V525.03h-10.335a38.489,38.489,0,0,1-5.632,7.758l-3.128-3.071a33.6,33.6,0,0,0,8.422-16.231l4.121.993q-.787,3.022-1.892,6.4h8.443v-8.29h4.235v8.29h16.553v4.156h-16.553v9.027h14.659v4.156h-14.659v10.321h17.161Z" transform="translate(434.078 -510.948)" fill="#fff"/>
      <path id="Path_1957" data-name="Path 1957" d="M-130.843,530.465l-2.5,3.417a49.207,49.207,0,0,0-7.97-6.048l2.431-3.417a42.8,42.8,0,0,1,8.039,6.048m.5,7.713a81.492,81.492,0,0,1-7.185,16.092L-141,551.706a82.2,82.2,0,0,0,7.027-15.468Zm.563-18.426-3,3.071a54.283,54.283,0,0,0-7.928-7.3l2.951-3.026a48.334,48.334,0,0,1,7.973,7.251m28.961,9.167h-12.725v6.557h10.472v18.634h-4.166V551.8h-16.6v2.308h-4.187V535.475h10.313v-6.557h-12.725l-.043-3.925h12.768v-6.259q-5.451.532-10.313.669l-1.442-3.97a93.1,93.1,0,0,0,25.178-3.026l2.05,3.464a71.187,71.187,0,0,1-11.307,2.4v6.72h12.725Zm-6.419,10.6h-16.6v8.221h16.6Z" transform="translate(460.798 -511.188)" fill="#fff"/>
      <path id="Path_1958" data-name="Path 1958" d="M-229.632,525.192a5.186,5.186,0,0,1,3.859,1.634,5.285,5.285,0,0,1,1.594,3.8,5.443,5.443,0,0,1-1.582,3.946,5.27,5.27,0,0,1-3.92,1.615,5.219,5.219,0,0,1-3.88-1.629,5.381,5.381,0,0,1-1.6-3.9,5.267,5.267,0,0,1,1.6-3.866,5.341,5.341,0,0,1,3.927-1.6" transform="translate(332.755 -493.746)" fill="#fff"/>
      <path id="Path_1959" data-name="Path 1959" d="M-182.257,525.192a5.186,5.186,0,0,1,3.859,1.634,5.285,5.285,0,0,1,1.594,3.8,5.443,5.443,0,0,1-1.582,3.946,5.27,5.27,0,0,1-3.92,1.615,5.219,5.219,0,0,1-3.88-1.629,5.381,5.381,0,0,1-1.6-3.9,5.268,5.268,0,0,1,1.6-3.866,5.341,5.341,0,0,1,3.927-1.6" transform="translate(397.392 -493.746)" fill="#fff"/>
    </g>
  </g>
</svg>
