<svg xmlns="http://www.w3.org/2000/svg" width="58.142" height="56.616" viewBox="0 0 58.142 56.616">
  <g id="icon_line2" transform="translate(0 -3.893)">
    <path id="Path_1899" data-name="Path 1899" d="M58.007,25.747h0L57.99,25.6v-.013l-.067-.56-.047-.387-.014-.116-.029,0a22.083,22.083,0,0,0-5.675-11.13A28.931,28.931,0,0,0,40.872,5.967,34.241,34.241,0,0,0,29.042,3.893,33.2,33.2,0,0,0,13.5,7.656C4.567,12.4-.7,21.129.076,29.886A22.941,22.941,0,0,0,5.21,42.361a27.692,27.692,0,0,0,10.883,7.972,41.378,41.378,0,0,0,8.1,2.18l.327.065c.769.152.975.361,1.029.444a.962.962,0,0,1,.007.624c-.036.154-.074.307-.112.461a9.192,9.192,0,0,0-.366,3.881,2.706,2.706,0,0,0,2.745,2.522h0c1.575,0,3.369-1.057,4.555-1.756l.158-.093c2.831-1.662,5.5-3.537,7.5-4.985,4.392-3.168,9.369-6.76,13.1-11.406A22.532,22.532,0,0,0,58.007,25.747Zm-39.9,8.865H13.09a1.373,1.373,0,0,1-1.373-1.373V22.711a1.373,1.373,0,1,1,2.745,0v9.156h3.643a1.373,1.373,0,0,1,0,2.745Zm5.233-1.41a1.373,1.373,0,0,1-2.745,0V22.674a1.373,1.373,0,1,1,2.745,0Zm12.407,0a1.373,1.373,0,0,1-2.483.806L28.32,27.2v6a1.373,1.373,0,0,1-2.745,0V22.975a1.373,1.373,0,0,1,2.483-.806L33,28.976v-6.3a1.373,1.373,0,1,1,2.745,0Zm10,1.156H38.954a1.373,1.373,0,0,1-1.373-1.373V22.458a1.373,1.373,0,0,1,1.373-1.373h6.582a1.373,1.373,0,0,1,0,2.745h-5.21v2.519h4.228a1.373,1.373,0,0,1,0,2.745H40.326v2.519h5.421a1.373,1.373,0,0,1,0,2.745Z" transform="translate(0)" fill="#fff"/>
  </g>
</svg>
