<svg xmlns="http://www.w3.org/2000/svg" width="603.456" height="128.269" viewBox="0 0 603.456 128.269">
  <g id="Group_1797" data-name="Group 1797" transform="translate(-109 -520.779)">
    <g id="Group_1545" data-name="Group 1545" transform="translate(24.675 -40.551)">
      <path id="Path_1631" data-name="Path 1631" d="M113.315,583.694H91.193v47.069H84.325V562.829h28.99Zm-6.833-15.561H91.193v3.02h15.289Zm0,7.4H91.193v3.021h15.289Zm8.533,29.415-4.114,2.286c-.353-.594-.693-1.126-1.018-1.589q-8.384,1.279-14.535,1.664l-1.209-4.1a41.49,41.49,0,0,0,8.569-6.04c-2.846.415-5.236.669-7.174.776l-1.245-4.1a21.153,21.153,0,0,0,8.871-8.867l4.946,1.9a32.556,32.556,0,0,1-6.342,6.345,36.2,36.2,0,0,0,5.435-.812,32.9,32.9,0,0,0,2.457-3.171l4.943,2.049a58.647,58.647,0,0,1-11.891,11.03,24.571,24.571,0,0,0,4.946-.618,6.115,6.115,0,0,0-.757-1.2l4.078-2.129a47.385,47.385,0,0,1,4.039,6.58m-1.243,6.424q0,7.741-3.211,11.672t-11.705,6.405l-3.582-5.417q7.847-1.32,10.531-4.914H95.684v-9.6h6v4.837h5.665a4.188,4.188,0,0,0,.15-1.392v-4.606h6.267Zm24.5-6.5-4.566,2.2a8.144,8.144,0,0,0-.984-1.739q-5.285.855-15.177,1.9l-1.058-4.026a32.1,32.1,0,0,0,7.856-5.882l-7.4.888-1.093-4.218a23.356,23.356,0,0,0,8.038-9.022l5.021,1.59a33.049,33.049,0,0,1-6.491,6.81q4.339-.578,5.738-.813a18.265,18.265,0,0,0,2.077-3.017l5.32,1.741a51.982,51.982,0,0,1-11.1,11.03c2.469-.257,4.241-.492,5.323-.693a8.572,8.572,0,0,0-1.094-1.357l4.641-2.052a36.108,36.108,0,0,1,4.947,6.658m-2,14.555H124.342v9.6h-6.417v-20.6h6.417v6.117h5.734v-4.916h6.192Zm11.061,4.606a6.61,6.61,0,0,1-1.208,4.083,6.242,6.242,0,0,1-3,2.227,21.585,21.585,0,0,1-6.245.619,20.956,20.956,0,0,1-3.021-.194l-2.6-6.889q1.961.154,4.376.154a26.4,26.4,0,0,0,3.908-.194c.717-.127,1.078-.8,1.078-2.014V583.694H118.563V562.829H147.33Zm-6.718-55.895H125.435v3.02h15.177Zm0,7.4H125.435v3.021h15.177Z" transform="translate(0 0.549)" fill="#fff"/>
      <path id="Path_1632" data-name="Path 1632" d="M159.393,563q-2.111,6.034-4.115,10.876l-2,4.491v52.795h-6.568V591.212q-1.586,2.318-5.1,6.81l-3.021-7.274q8.228-11.772,14.043-29.342Zm16.461,50.666q-7.931,10.374-14.837,15.752l-5.89-4.178a71.476,71.476,0,0,0,14.61-14.983Zm9.437-49.081q-8.569,9.251-24.273,18.153l-4.645-4.684q14.686-7.706,23.333-16.719Zm22.085,42.887-5.775,3.409a51.528,51.528,0,0,0-3.095-5.3q-6.154.885-12.608,1.585v17.42a7.552,7.552,0,0,1-1.72,4.876q-1.719,2.133-8.966,2.127a20.627,20.627,0,0,1-2.379-.115l-2.644-6.889q7.663,0,8.288-.079c.417-.051.622-.555.622-1.51V607.776q-8.567.814-19.893,1.355l-1.058-5.378a131.415,131.415,0,0,0,18.838-10.064q-11.438.695-15.894.773l-1.249-5.613q17.592-9.054,27.147-19.9l6.192,3.33q-6.57,7.241-20.124,15.675,11.29-.576,13.215-.907t8.609-7.183l6.643,3.175q-8.911,8.786-27.447,19.12,7.819-.344,20.389-2.01-1.476-2.093-3.552-4.49l5.965-3.021a86.209,86.209,0,0,1,10.5,14.824m-.075,18.542-5.549,3.714a107.239,107.239,0,0,0-12.985-16.215l5.323-3.912A96.917,96.917,0,0,1,207.3,626.009" transform="translate(19.877 0)" fill="#fff"/>
      <path id="Path_1633" data-name="Path 1633" d="M234.127,580.852a93.419,93.419,0,0,1-2.339,18.966l-5.853-2.283a81.04,81.04,0,0,0,2.6-17.923ZM249.6,584.53l-3.662,5.533a29.1,29.1,0,0,0-3.246-5.688v47.607h-6.718V562.969H242.7v13.547a49.36,49.36,0,0,1,6.908,8.015m40.735,41.456q0,6.265-8.72,6.27-2.871,0-6.116-.194l-2.343-6.232q7.556.115,9.12-.04a1.621,1.621,0,0,0,1.566-1.858v-4.218h-25.3a31.611,31.611,0,0,1-6.718,13.235l-5.74-4.527q6.646-5.88,6.647-19.161V595.677h37.6Zm3.472-33.948h-43.98V586.35h18.538v-3.913H252.058v-5.378h16.311v-3.638H249.756v-5.538h18.613v-4.835h6.568v4.835h17.479v5.538H274.937v3.638h15.4v5.378h-15.4v3.913h18.874Zm-9.964,22.22v-4.067H259.423q0,1.7-.15,4.067Zm0-13.01H259.574V605.2h24.272Z" transform="translate(51.87 0.6)" fill="#fff"/>
      <path id="Path_1634" data-name="Path 1634" d="M292.564,614.973a62.208,62.208,0,0,1-3.849,18l-6.191-3.017q2.64-6.154,3.927-16.647Zm18.311-38.938q-7.966,17.574-17.439,27.677a54.976,54.976,0,0,0,8.042-2.287,23.067,23.067,0,0,0-1.174-3.015l5.248-2.477a63.413,63.413,0,0,1,4.039,12.771l-5.809,2.248a35.4,35.4,0,0,0-.607-3.755,145.166,145.166,0,0,1-18.047,4.372l-1.925-5.727q7.288-5.767,14.158-17.575-5.511,1.392-12.116,2.671l-1.476-5.611q6.38-8.015,11.594-22.839l6.191,2.865a70.535,70.535,0,0,1-9.216,18.075,77.52,77.52,0,0,0,8.725-2.323q2.371-4.716,3.887-8.4Zm-9.02,53.456-6.267.928a79.364,79.364,0,0,0-1.172-14.979l5.738-1.085a89.13,89.13,0,0,1,1.7,15.136m9.964-3.328-6.04,1.739a84.017,84.017,0,0,0-3.171-13.623l5.815-1.783a88.257,88.257,0,0,1,3.4,13.667M350.4,591.208H337.19a56.956,56.956,0,0,1-6.116,6.234h15.7v34.872h-6.5v-3.793H322.656v3.793h-6.8v-24.23l-3.246,1.82-2.565-6.038a82.213,82.213,0,0,0,18.534-12.659H309.668V585.17h13.215V577h-10.12V570.81h10.12v-7.86H329.6v7.86h8.985V577H329.6v8.169h4.264a104.044,104.044,0,0,0,10.571-17.689l5.359,3.4a101.759,101.759,0,0,1-8.188,14.285H350.4Zm-10.119,12.5H322.656v6.117h17.626Zm0,12.038H322.656v6.5h17.626Z" transform="translate(72.599 0.424)" fill="#fff"/>
      <path id="Path_1635" data-name="Path 1635" d="M378.733,588.911q-3.584,22.837-9.437,35.843l-6.267-3.832a123.769,123.769,0,0,0,8.795-33.441Zm37.488,20.362q-.227,7.585-.813,12.231t-1.51,6.076a10.518,10.518,0,0,1-2.756,2.748,10.022,10.022,0,0,1-5.152,1.57q-3.324.248-7.1.249-4.185,0-7.888-.329t-4.927-1.22a6.069,6.069,0,0,1-1.946-2.437,8.87,8.87,0,0,1-.717-3.753V580.513h6.908v41.994q0,2.865,3.377,2.75t11.309-.119a4.393,4.393,0,0,0,2.473-.828q1.224-.832,1.66-6.948t.433-10.143Zm-6.188-24.428-5.894,4.375a97.788,97.788,0,0,0-15.93-21.791l4.868-4.376a104.5,104.5,0,0,1,16.956,21.792m21.555,34.1-6.718,3.25a126.866,126.866,0,0,0-11.82-31l6.04-3.33q9.02,17.611,12.5,31.083" transform="translate(102.087 0.631)" fill="#fff"/>
      <path id="Path_1636" data-name="Path 1636" d="M487.385,630.572H420.337V623.6h31.182V606.3H428.077v-6.968h23.441V584.2H434.194a64.52,64.52,0,0,1-9.441,13l-5.245-5.148a56.314,56.314,0,0,0,14.119-27.21l6.908,1.664q-1.32,5.066-3.171,10.721h14.155v-13.9h7.1v13.9h27.749V584.2H458.618v15.133h24.574V606.3H458.618v17.3h28.767Z" transform="translate(122.774 0.735)" fill="#fff"/>
      <path id="Path_1637" data-name="Path 1637" d="M493.871,593.1l-4.189,5.727a82.426,82.426,0,0,0-13.362-10.138l4.076-5.727A71.775,71.775,0,0,1,493.871,593.1m.832,12.929A136.6,136.6,0,0,1,482.658,633l-5.815-4.3a137.811,137.811,0,0,0,11.78-25.93Zm.944-30.888-5.023,5.148a90.98,90.98,0,0,0-13.29-12.231l4.946-5.073q9.138,6.968,13.366,12.156M544.2,590.5H522.865V601.5h17.554v31.236h-6.983v-3.868H505.612v3.868h-7.02V601.5h17.289V590.5H494.549l-.071-6.58h21.4V573.432q-9.139.894-17.289,1.122l-2.418-6.654q24.276,0,42.209-5.074l3.436,5.807a119.189,119.189,0,0,1-18.953,4.028v11.264H544.2Zm-10.761,17.765H505.612v13.782h27.825Z" transform="translate(143.584 0.548)" fill="#fff"/>
      <path id="Path_1638" data-name="Path 1638" d="M213.338,599.912a8.691,8.691,0,0,1,6.468,2.738,8.861,8.861,0,0,1,2.672,6.378,9.126,9.126,0,0,1-2.652,6.616,9.221,9.221,0,0,1-13.077-.025,9.02,9.02,0,0,1-2.679-6.543,8.831,8.831,0,0,1,2.683-6.48,8.954,8.954,0,0,1,6.584-2.683" transform="translate(43.861 14.132)" fill="#fff"/>
      <path id="Path_1639" data-name="Path 1639" d="M350.773,599.912a8.691,8.691,0,0,1,6.468,2.738,8.861,8.861,0,0,1,2.672,6.378,9.126,9.126,0,0,1-2.652,6.616,9.221,9.221,0,0,1-13.077-.025,9.019,9.019,0,0,1-2.679-6.543,8.831,8.831,0,0,1,2.683-6.48,8.954,8.954,0,0,1,6.584-2.683" transform="translate(94.203 14.132)" fill="#fff"/>
    </g>
    <g id="Group_1548" data-name="Group 1548" transform="translate(-132.189 108.199)">
      <path id="Path_1560" data-name="Path 1560" d="M259.274,510.473a14.717,14.717,0,0,1-6.67,1.341,10.949,10.949,0,0,1-8.295-3.257,11.927,11.927,0,0,1-3.121-8.6,12.748,12.748,0,0,1,3.46-9.189,11.781,11.781,0,0,1,8.91-3.612,14.872,14.872,0,0,1,5.716.954v3.744a11.249,11.249,0,0,0-5.592-1.417A8.085,8.085,0,0,0,247.428,493a9.517,9.517,0,0,0-2.356,6.707,9.207,9.207,0,0,0,2.208,6.41,7.589,7.589,0,0,0,5.923,2.448,11.491,11.491,0,0,0,6.07-1.585Z" transform="translate(0 29.035)" fill="#fff"/>
      <path id="Path_1561" data-name="Path 1561" d="M249.233,499.784a13.082,13.082,0,0,1,3.168-9.144,10.955,10.955,0,0,1,8.542-3.489,10.358,10.358,0,0,1,8.087,3.389,12.5,12.5,0,0,1,3.05,8.689,13.154,13.154,0,0,1-3.113,9.1,11.778,11.778,0,0,1-16.6.121,12.2,12.2,0,0,1-3.136-8.671m3.883-.263a10.142,10.142,0,0,0,2.019,6.494,6.588,6.588,0,0,0,5.453,2.548,6.869,6.869,0,0,0,5.608-2.424,10,10,0,0,0,2-6.557,10.559,10.559,0,0,0-1.932-6.686,6.587,6.587,0,0,0-5.508-2.463,6.8,6.8,0,0,0-5.56,2.558,10.017,10.017,0,0,0-2.08,6.531" transform="translate(13.104 29.035)" fill="#fff"/>
      <path id="Path_1562" data-name="Path 1562" d="M277.945,501.274q0,10.289-9.412,10.29-9.027,0-9.028-9.951V487.3h3.7v14.218q0,6.791,5.605,6.793,5.438,0,5.44-6.562V487.3h3.7Z" transform="translate(29.838 29.282)" fill="#fff"/>
      <path id="Path_1563" data-name="Path 1563" d="M288.691,511.164h-4.128l-11.415-17.591a10.848,10.848,0,0,1-.925-1.68h-.092a28.252,28.252,0,0,1,.139,3.481v15.79h-3.589V487.3h4.375l11.076,17.252q.785,1.234,1.046,1.712h.076a24.95,24.95,0,0,1-.168-3.42V487.3h3.6Z" transform="translate(44.786 29.282)" fill="#fff"/>
      <path id="Path_1564" data-name="Path 1564" d="M278.154,506.468a9.914,9.914,0,0,0,6.454,2.235q4.744,0,4.745-3.252a2.913,2.913,0,0,0-.523-1.693,4.8,4.8,0,0,0-1.412-1.317,39.26,39.26,0,0,0-3.5-1.811,13,13,0,0,1-4.5-3.126,5.768,5.768,0,0,1-1.278-3.728,5.682,5.682,0,0,1,2.434-4.853,10.311,10.311,0,0,1,6.223-1.772,13.058,13.058,0,0,1,5.424.878v3.791a9.433,9.433,0,0,0-5.5-1.525,6.122,6.122,0,0,0-3.4.846,2.645,2.645,0,0,0-1.294,2.327,2.849,2.849,0,0,0,.947,2.2,18.64,18.64,0,0,0,4,2.308,14.025,14.025,0,0,1,4.914,3.336,5.938,5.938,0,0,1,1.354,3.844,5.753,5.753,0,0,1-2.34,4.945,10.826,10.826,0,0,1-6.486,1.709,17.677,17.677,0,0,1-3.389-.368,8.9,8.9,0,0,1-2.866-.986Z" transform="translate(60.192 29.033)" fill="#fff"/>
      <path id="Path_1565" data-name="Path 1565" d="M298.8,511.164H285.58V487.3h12.677v3.173h-8.981V497.5h8.334v3.158h-8.334v7.332h9.52Z" transform="translate(72.315 29.283)" fill="#fff"/>
      <path id="Path_1566" data-name="Path 1566" d="M305.276,511.164H292.259V487.3h3.7v20.688h9.32Z" transform="translate(83.196 29.283)" fill="#fff"/>
      <path id="Path_1567" data-name="Path 1567" d="M302.231,490.322v20.843h-3.7V487.3h3.7Z" transform="translate(93.419 29.283)" fill="#fff"/>
      <path id="Path_1568" data-name="Path 1568" d="M322.232,511.164H318.1l-11.418-17.591a10.6,10.6,0,0,1-.923-1.68h-.092a28.267,28.267,0,0,1,.139,3.481v15.79H302.22V487.3h4.375l11.079,17.252c.523.823.873,1.393,1.044,1.712h.079a24.94,24.94,0,0,1-.168-3.42V487.3h3.6Z" transform="translate(99.423 29.282)" fill="#fff"/>
      <path id="Path_1569" data-name="Path 1569" d="M331.513,509.8a16.463,16.463,0,0,1-8.242,2.019,11.471,11.471,0,0,1-8.55-3.252,11.921,11.921,0,0,1-3.2-8.75,12.157,12.157,0,0,1,12.693-12.662,16.535,16.535,0,0,1,6.591,1.186v3.788a12.744,12.744,0,0,0-6.822-1.74,8.124,8.124,0,0,0-6.178,2.542,10.746,10.746,0,0,0-.192,13.3,7.771,7.771,0,0,0,5.984,2.379,8.737,8.737,0,0,0,4.206-.925v-5.976h-5.069v-3.142h8.781Z" transform="translate(114.571 29.035)" fill="#fff"/>
      <path id="Path_1570" data-name="Path 1570" d="M341.61,510.473a14.717,14.717,0,0,1-6.67,1.341,10.949,10.949,0,0,1-8.295-3.257,11.927,11.927,0,0,1-3.121-8.6,12.748,12.748,0,0,1,3.46-9.189,11.781,11.781,0,0,1,8.91-3.612,14.873,14.873,0,0,1,5.716.954v3.744a11.249,11.249,0,0,0-5.592-1.417A8.085,8.085,0,0,0,329.764,493a9.517,9.517,0,0,0-2.356,6.707,9.207,9.207,0,0,0,2.208,6.41,7.589,7.589,0,0,0,5.923,2.448,11.492,11.492,0,0,0,6.07-1.585Z" transform="translate(134.13 29.035)" fill="#fff"/>
      <path id="Path_1571" data-name="Path 1571" d="M345.372,511.164H332.156V487.3h12.677v3.173h-8.981V497.5h8.334v3.158h-8.334v7.332h9.52Z" transform="translate(148.19 29.283)" fill="#fff"/>
      <path id="Path_1572" data-name="Path 1572" d="M358.846,511.164h-4.128L343.3,493.573a10.849,10.849,0,0,1-.925-1.68h-.092a28.267,28.267,0,0,1,.139,3.481v15.79h-3.589V487.3h4.375l11.076,17.252q.785,1.234,1.046,1.712h.076a24.928,24.928,0,0,1-.168-3.42V487.3h3.6Z" transform="translate(159.072 29.282)" fill="#fff"/>
      <path id="Path_1573" data-name="Path 1573" d="M365.225,490.476h-6.854v20.688h-3.715V490.476h-6.838V487.3h17.407Z" transform="translate(173.704 29.282)" fill="#fff"/>
      <path id="Path_1574" data-name="Path 1574" d="M369.009,511.164H355.793V487.3H368.47v3.173h-8.981V497.5h8.334v3.158h-8.334v7.332h9.52Z" transform="translate(186.695 29.283)" fill="#fff"/>
      <path id="Path_1575" data-name="Path 1575" d="M380.586,511.164h-4.327l-3.883-6.5a9.117,9.117,0,0,0-2.072-2.6,3.476,3.476,0,0,0-2.132-.694h-2v9.8h-3.7V487.3h7.593a8.786,8.786,0,0,1,5.739,1.672,5.788,5.788,0,0,1,2.027,4.735,6.277,6.277,0,0,1-1.4,4.115,7.373,7.373,0,0,1-3.912,2.387v.06q1.6.556,3.589,3.759Zm-14.418-20.812V498.3h3.281a4.5,4.5,0,0,0,3.273-1.186,4.016,4.016,0,0,0,1.225-3.018q0-3.743-4.438-3.744Z" transform="translate(197.576 29.282)" fill="#fff"/>
    </g>
  </g>
</svg>
