<?xml version="1.0" encoding="UTF-8"?>
<svg id="OBJECTS" xmlns="http://www.w3.org/2000/svg" viewBox="0 0 213.33 213.33">
  <defs>
    <style>
      .cls-1 {
        fill: #fff;
      }

      .cls-2 {
        fill: #b9c4e1;
      }
    </style>
  </defs>
  <rect class="cls-2" width="213.33" height="213.33"/>
  <ellipse class="cls-1" cx="105.99" cy="106.03" rx="41.89" ry="54.15"/>
  <path class="cls-1" d="M105.99,297.46c30.7,0,58.38-23.28,78.01-60.58-10.5-35.49-41.45-61.21-78.01-61.21s-67.51,25.72-78.01,61.21c19.64,37.3,47.32,60.58,78.01,60.58Z"/>
  <rect class="cls-1" x="87.07" y="123.67" width="37.83" height="68.38" rx="9.62" ry="9.62"/>
  <path class="cls-1" d="M67.58,98.02c1.36,10.07-.88,18.8-4.99,19.5-4.11,.7-8.55-6.89-9.91-16.96-1.36-10.07,.88-18.8,4.99-19.5,4.11-.7,8.55,6.89,9.91,16.96Z"/>
  <path class="cls-1" d="M143.93,98.02c-1.36,10.07,.88,18.8,4.99,19.5,4.11,.7,8.55-6.89,9.91-16.96,1.36-10.07-.88-18.8-4.99-19.5s-8.55,6.89-9.91,16.96Z"/>
  <path class="cls-1" d="M62.01,91.98c-1.52-10.05-3.05-20.1-4.57-30.15-.55-3.65-1.09-7.5,.24-10.94,1.33-3.44,5.24-6.18,8.7-4.89-1.38-6.99,6.35-12.16,13.09-14.48,11.29-3.89,23.41-5.87,35.25-4.34,11.85,1.53,23.41,6.77,31.4,15.65,2.53,2.81,4.71,6.01,5.91,9.59,2.32,6.9,.84,14.42-.65,21.54-1.19,5.66-2.37,11.31-3.56,16.97-.27,1.29-.57,2.65-1.46,3.63-1.41,1.56-3.78,1.68-5.88,1.69l-67.44,.15c-4.23,0-9.74-1.03-10.3-5.22"/>
</svg>