<svg xmlns="http://www.w3.org/2000/svg" width="210.385" height="76.964" viewBox="0 0 210.385 76.964">
  <g id="Group_1774" data-name="Group 1774" transform="translate(-33.263 -484.021)">
    <g id="Group_1773" data-name="Group 1773" transform="translate(33.263 484.021)">
      <rect id="Rectangle_195" data-name="Rectangle 195" width="2.229" height="3.344" transform="translate(195.726 66.12)" fill="#afabb2"/>
      <path id="Path_1897" data-name="Path 1897" d="M224.536,552.8h-4.453v-3.344h4.453Zm-8.907,0h-4.453v-3.344h4.453Zm-8.907,0h-4.453v-3.344h4.453Zm-8.907,0h-4.453v-3.344h4.453Zm-8.907,0h-4.453v-3.344h4.453Zm-8.907,0h-4.453v-3.344H180Zm-8.907,0h-4.453v-3.344H171.1Zm-8.907,0h-4.453v-3.344h4.453Zm-8.907,0h-4.453v-3.344h4.453Zm-8.907,0h-4.453v-3.344h4.453Zm-8.907,0h-4.453v-3.344h4.453Zm-8.907,0h-4.453v-3.344h4.453Zm-8.907,0H113.2v-3.344h4.452Zm-8.906,0h-4.454v-3.344h4.454Zm-8.908,0H95.389v-3.344h4.452Zm-8.906,0H86.481v-3.344h4.455Zm-8.907,0H77.575v-3.344h4.453Zm-8.907,0H68.668v-3.344h4.453Zm-8.907,0H59.762v-3.344h4.453Zm-8.907,0H50.855v-3.344h4.453Zm-9.142-.162A14.938,14.938,0,0,1,41.42,551.1l1.543-2.967a11.627,11.627,0,0,0,3.689,1.193Zm-8.728-4.524a15.069,15.069,0,0,1-2.8-4.121l3.039-1.4a11.742,11.742,0,0,0,2.18,3.209Zm-4.1-8.936c-.048-.492-.074-.99-.074-1.494v-3.119h3.344v3.117c0,.392.02.785.057,1.169Zm3.271-9.066H33.263v-4.453h3.344Zm0-8.907H33.263v-4.453h3.344Zm0-8.907H33.263v-4.453h3.344Zm0-8.906H33.263v-4.453h3.344Zm0-8.908H33.263v-4.453h3.344Z" transform="translate(-33.263 -483.332)" fill="#afabb2"/>
      <rect id="Rectangle_196" data-name="Rectangle 196" width="3.344" height="2.229" fill="#afabb2"/>
    </g>
    <path id="Path_1898" data-name="Path 1898" d="M223.628,545.78l-15.886-9.172v18.344Z" transform="translate(20.02 6.034)" fill="#afabb2"/>
  </g>
</svg>
