<?xml version="1.0" encoding="utf-8"?>
<!-- Generator: Adobe Illustrator 26.3.1, SVG Export Plug-In . SVG Version: 6.00 Build 0)  -->
<svg version="1.1" id="_層_1" xmlns="http://www.w3.org/2000/svg" xmlns:xlink="http://www.w3.org/1999/xlink" x="0px" y="0px"
	 viewBox="0 0 22.6 198.7" style="enable-background:new 0 0 22.6 198.7;" xml:space="preserve">
<style type="text/css">
	.st0{fill:#AFABB2;}
</style>
<g id="Group_1774" transform="translate(-33.263 -484.021)">
	<g id="Group_1773" transform="translate(33.263 484.021)">
		<rect id="Rectangle_195" x="9.8" y="178.1" class="st0" width="3.3" height="2.2"/>
		<path id="Path_1897" class="st0" d="M9.8,173.7v-4.4h3.3v4.4H9.8z M9.8,164.8v-4.4h3.3v4.4H9.8z M9.8,155.9v-4.4h3.3v4.4H9.8z
			 M9.8,146.9v-4.4h3.3v4.4H9.8z M9.8,138v-4.4h3.3v4.4H9.8z M9.8,129.1v-4.4h3.3v4.4H9.8z M9.8,120.2v-4.4h3.3v4.5L9.8,120.2
			L9.8,120.2z M9.8,111.3v-4.4h3.3v4.4H9.8z M9.8,102.4v-4.4h3.3v4.4H9.8z M9.8,93.5V89h3.3v4.4H9.8z M9.8,84.6v-4.4h3.3v4.4H9.8z
			 M9.8,75.7v-4.4h3.3v4.4H9.8z M9.8,66.8v-4.5h3.3v4.5H9.8z M9.8,57.8v-4.5h3.3v4.5H9.8z M9.8,48.9v-4.5h3.3v4.5H9.8z M9.8,40v-4.5
			h3.3V40L9.8,40L9.8,40z M9.8,31.1v-4.5h3.3v4.5H9.8z M9.8,22.2v-4.5h3.3v4.5H9.8z M9.8,13.3V8.8h3.3v4.4H9.8z M9.8,4.4V0h3.3v4.4
			L9.8,4.4L9.8,4.4z"/>
	</g>
	<path id="Path_1898" class="st0" d="M44.5,679.8l9.2-15.9H35.3L44.5,679.8z"/>
</g>
</svg>
