<?xml version="1.0" encoding="UTF-8"?>
<svg id="OBJECTS" xmlns="http://www.w3.org/2000/svg" viewBox="0 0 213.33 213.33">
  <defs>
    <style>
      .cls-1 {
        fill: #fff;
      }

      .cls-2 {
        fill: #DDA869;
      }
    </style>
  </defs>
  <rect class="cls-2" width="213.33" height="213.33"/>
  <ellipse class="cls-1" cx="105.99" cy="106.03" rx="41.89" ry="54.15"/>
  <path class="cls-1" d="M105.99,297.46c30.7,0,58.38-23.28,78.01-60.58-10.5-35.49-41.45-61.21-78.01-61.21s-67.51,25.72-78.01,61.21c19.64,37.3,47.32,60.58,78.01,60.58Z"/>
  <rect class="cls-1" x="87.07" y="123.67" width="37.83" height="68.38" rx="9.62" ry="9.62"/>
  <path class="cls-1" d="M152.76,98.38c-.86-12.53-.43-25.39-4.47-37.29-4.53-13.37-14.97-24.8-28.19-29.71-13.23-4.92-29.02-2.89-40.07,5.88-3.87,3.07-7.36,7.49-6.97,12.42-6.71-2.27-14.2,2.5-17.34,8.85-3.14,6.36-2.98,13.78-2.54,20.86,1.31,20.73,4.47,41.98-1.14,61.96,17.2,.52,34.41,1.04,51.61,1.56,5.51,.17,11.02,.33,16.53,.1,14.05-.61,28.61-3.77,41.84,.99-5.07-14.71-8.2-30.09-9.27-45.62Z"/>
</svg>